# xmcd CD database file
#
# Track frame offsets:
#	150
#	16482
#	31037
#	47362
#	59956
#	82368
#	100912
#	118355
#	136711
#	152808
#	168486
#	186082
#	201237
#	215489
#	235936
#	254913
#	273549
#	291611
#	308715
#
# Disc length: 4312 seconds
#
# Revision: 0
# Processed by: cddbd v1.5.1PL2 Copyright (c) Steve Scherf et al.
# Submitted via: CDex 1.51
#
DISCID=2a10d613
DTITLE=diverse Künstler - November 2005
DYEAR=1900
DGENRE=LineDance
TTITLE0=THE DEAN BROTHERS - SHAKE YOUR TAIL FEATHER
TTITLE1=(Just Wright) - Chely Wright - C'est La Vie (You Never Can Tell)
TTITLE2=Sugarbabes - Push The Button
TTITLE3=Speak to The Sky - Brandon Walmsley
TTITLE4=KT Tunstall - Black Horse And The Cherry Tre
TTITLE5=Glenn Frey - Who's Been Sleeping in My Bed?
TTITLE6=Lonestar - Let's Be Us Again
TTITLE7=Chayanne - Mariana Mambo
TTITLE8=Rye Brothers - Needle In The Haystack
TTITLE9=Racey - Some Girls
TTITLE10=(Soluna) - Soluna - Monday Mi Amor
TTITLE11=Suzy Bogguss - Stuck On You
TTITLE12=NADINE SOMERS - TEMPTATION
TTITLE13=Alan Jackson - Alan Jackson - Remember When
TTITLE14=Scooter Lee - Honky Tonk twist
TTITLE15=Clay Aiken - the way
TTITLE16=Dixie Chicks - Irish Medley
TTITLE17=Jive Bunny - Glen Miller Medley
TTITLE18=Blake Shelton - cotton pickin time
EXTD=
EXTT0=
EXTT1=
EXTT2=
EXTT3=
EXTT4=
EXTT5=
EXTT6=
EXTT7=
EXTT8=
EXTT9=
EXTT10=
EXTT11=
EXTT12=
EXTT13=
EXTT14=
EXTT15=
EXTT16=
EXTT17=
EXTT18=
PLAYORDER=
